#!OML:ASF C:\Vicon Data\Big\jianyuan-13\jianyuan\Session 1\Capture.male.ASF
:FULLY-SPECIFIED
:DEGREES
28
root -8.024271 17.621150 -22.091600 8.783747 8.662363 0.407940
lowerback -14.329055 -3.696596 -0.276963 
upperback -0.312325 -4.975725 1.440431 
thorax 7.854837 -2.449932 0.649105 
lowerneck -3.683419 0.323116 4.781704 
upperneck -2.061581 0.215237 -6.434391 
head 0.002393 0.058838 -2.880299 
rclavicle 0.000000 0.000000 
rhumerus -47.114624 -27.603068 -67.419258 
rradius 20.936972 
rwrist 49.091856 
rhand -17.655707 -19.155501 
rfingers 0.000000 
rthumb 8.602615 -48.960228 
lclavicle 0.000000 0.000000 
lhumerus -16.767953 11.506976 93.703766 
lradius 39.967579 
lwrist -27.304354 
lhand -23.101382 4.961561 
lfingers 0.000000 
lthumb 3.345179 34.915068 
rfemur -39.538515 -1.450988 20.158720 
rtibia 34.948719 
rfoot -3.218723 -7.358304 
rtoes -26.959742 
lfemur 2.995243 -4.488554 -13.995977 
ltibia 44.303819 
lfoot 13.115453 -0.179766 
ltoes -51.328522 
29
root -8.035946 17.632477 -21.976481 8.555313 8.397015 0.295750
lowerback -14.274417 -3.518540 0.062442 
upperback -0.230482 -4.796088 1.434863 
thorax 7.879500 -2.350065 0.492231 
lowerneck -3.736531 0.279346 4.720246 
upperneck -1.686438 0.172388 -6.581025 
head 0.128083 0.034424 -2.919573 
rclavicle 0.000000 0.000000 
rhumerus -46.055468 -28.120275 -67.649645 
rradius 20.710398 
rwrist 49.981272 
rhand -17.925506 -19.468167 
rfingers 0.000000 
rthumb 8.342204 -49.283430 
lclavicle 0.000000 0.000000 
lhumerus -17.217163 13.753176 93.254255 
lradius 38.249587 
lwrist -28.895509 
lhand -22.940475 5.216725 
lfingers 0.000000 
lthumb 3.500560 35.167748 
rfemur -39.036825 -1.102829 20.338227 
rtibia 35.237408 
rfoot -3.620610 -7.177473 
rtoes -26.986242 
lfemur 1.733185 -4.622443 -13.959462 
ltibia 46.768285 
lfoot 14.072708 -0.155432 
ltoes -50.117693 
30
root -8.046881 17.644369 -21.866252 8.395631 8.063924 0.291109
lowerback -14.238745 -3.301648 0.288073 
upperback -0.197145 -4.540853 1.378242 
thorax 7.868396 -2.216796 0.360741 
lowerneck -3.805971 0.196144 4.656974 
upperneck -1.208850 0.081824 -6.705809 
head 0.286149 -0.015131 -2.952531 
rclavicle 0.000000 0.000000 
rhumerus -44.889513 -28.072730 -68.372781 
rradius 20.608204 
rwrist 50.020453 
rhand -18.097207 -19.933391 
rfingers 0.000000 
rthumb 8.176513 -49.755238 
lclavicle 0.000000 0.000000 
lhumerus -17.664173 16.125404 92.722321 
lradius 36.297135 
lwrist -30.686978 
lhand -23.044237 5.262675 
lfingers 0.000000 
lthumb 3.400395 35.215300 
rfemur -38.588698 -0.704842 20.379209 
rtibia 35.495045 
rfoot -4.059396 -6.980233 
rtoes -27.052497 
lfemur 0.431079 -4.617157 -14.026774 
ltibia 49.122827 
lfoot 14.680836 -0.315653 
ltoes -48.703545 
31
root -8.060438 17.649291 -21.759657 8.120612 7.661372 0.111670
lowerback -14.122994 -2.998190 0.624473 
upperback -0.139772 -4.190158 1.345956 
thorax 7.833841 -2.033932 0.215793 
lowerneck -3.743074 0.083246 4.635780 
upperneck -0.853471 -0.050493 -6.726852 
head 0.379665 -0.082491 -2.958689 
rclavicle 0.000000 0.000000 
rhumerus -43.762379 -27.966978 -69.201467 
rradius 20.700489 
rwrist 49.450631 
rhand -18.106627 -20.265617 
rfingers 0.000000 
rthumb 8.167406 -50.087766 
lclavicle 0.000000 0.000000 
lhumerus -18.143691 18.588312 92.072946 
lradius 34.322550 
lwrist -33.211794 
lhand -23.095187 5.350136 
lfingers 0.000000 
lthumb 3.351198 35.303545 
rfemur -38.057752 -0.405951 20.738488 
rtibia 35.721866 
rfoot -4.340329 -6.720518 
rtoes -28.499611 
lfemur -0.718563 -4.531536 -13.898262 
ltibia 51.399703 
lfoot 14.360540 0.027643 
ltoes -46.929104 
